<?xml version="1.0" standalone="no"?>
<!DOCTYPE svg PUBLIC "-//W3C//DTD SVG 20010904//EN"
 "http://www.w3.org/TR/2001/REC-SVG-20010904/DTD/svg10.dtd">
<svg version="1.0" xmlns="http://www.w3.org/2000/svg"
 width="382.000000pt" height="382.000000pt" viewBox="0 0 382.000000 382.000000"
 preserveAspectRatio="xMidYMid meet">
<metadata>
Created by potrace 1.11, written by Peter Selinger 2001-2013
</metadata>
<g transform="translate(0.000000,382.000000) scale(0.100000,-0.100000)"
fill="#000000" stroke="none">
<path d="M1910 3638 c-28 -90 -55 -174 -60 -188 -5 -14 -36 -113 -70 -220 -34
-107 -65 -206 -70 -220 -5 -14 -36 -113 -70 -220 -34 -107 -81 -256 -105 -330
-24 -74 -57 -178 -73 -230 -92 -291 -157 -497 -189 -595 -19 -60 -51 -136 -70
-167 -36 -59 -48 -110 -31 -141 7 -14 2 -26 -26 -57 -65 -72 -69 -158 -14
-262 31 -58 43 -69 51 -45 2 6 2 -11 -1 -40 -9 -105 24 -172 99 -194 32 -10
39 -17 39 -38 0 -47 30 -153 62 -219 46 -97 164 -200 216 -190 12 2 27 -16 51
-66 88 -176 216 -248 336 -191 60 29 100 65 159 145 29 40 46 55 48 44 2 -13
15 -10 73 21 118 61 189 154 202 265 3 28 11 50 17 50 19 1 85 91 122 167 27
52 38 89 41 137 3 37 8 64 11 61 7 -7 37 43 50 85 29 93 23 157 -23 224 -29
43 -30 47 -10 40 23 -9 19 28 -11 104 -15 37 -30 72 -35 77 -16 21 -22 94 -10
123 11 25 5 51 -44 213 -31 101 -65 213 -75 249 -10 36 -64 216 -120 400 -56
184 -105 349 -110 365 -4 17 -36 122 -70 235 -34 113 -75 248 -90 300 -104
352 -141 470 -146 470 -2 0 -26 -73 -54 -162z"/>
</g>
</svg>
